<?xml version="1.0" standalone="no"?>
<!DOCTYPE svg PUBLIC "-//W3C//DTD SVG 20010904//EN"
 "http://www.w3.org/TR/2001/REC-SVG-20010904/DTD/svg10.dtd">
<svg version="1.0" xmlns="http://www.w3.org/2000/svg"
 width="450.000000pt" height="450.000000pt" viewBox="0 0 450.000000 450.000000"
 preserveAspectRatio="xMidYMid meet">

<g transform="translate(0.000000,450.000000) scale(0.100000,-0.100000)"
fill="#000000" stroke="none">
<path d="M1490 4240 l-855 -5 -56 -23 c-157 -63 -261 -183 -294 -338 -11 -52
-11 -341 -4 -1621 9 -1700 6 -1620 66 -1722 64 -109 154 -178 283 -218 l85
-26 1040 12 c572 6 1270 11 1550 11 421 0 521 3 574 15 167 40 303 181 340
353 13 60 5 2895 -9 3114 -6 111 -11 135 -38 192 -35 75 -115 165 -180 203
-23 14 -70 34 -103 44 -58 18 -100 19 -802 17 -408 -2 -1127 -5 -1597 -8z
m1880 -2043 c0 -174 -1 -185 -21 -203 -20 -18 -55 -19 -1095 -22 l-1074 -3 0
179 c0 222 -1 220 110 225 41 2 526 4 1078 5 l1002 2 0 -183z"/>
</g>
</svg>
